<?xml version="1.0" standalone="no"?><!-- Generator: Gravit.io --><svg xmlns="http://www.w3.org/2000/svg" xmlns:xlink="http://www.w3.org/1999/xlink" style="isolation:isolate" viewBox="656.917 378.833 346.167 346.167" width="346.167" height="346.167"><defs><clipPath id="_clipPath_qDSLg6Yd0kr8mQ5RcZiJ8REu5DAOV0kG"><rect x="656.917" y="378.833" width="346.167" height="346.167"/></clipPath></defs><g clip-path="url(#_clipPath_qDSLg6Yd0kr8mQ5RcZiJ8REu5DAOV0kG)"><circle vector-effect="non-scaling-stroke" cx="830" cy="551.9166666666665" r="173.08333333333348" fill="rgb(57,57,57)"/><path d=" M 867.909 441 Q 904.525 441 920.939 441 Q 937.354 441 943.667 469.636 L 867.909 469.636 L 867.909 441 Z " fill="rgb(176,151,100)"/><path d=" M 751.466 476.002 L 723.97 631.909 L 723.97 651 Q 846.034 651 852.758 651 C 859.481 651 870.277 651 875.485 631.909 Q 880.693 612.818 896.371 476.143 C 897.387 467.284 902.847 454.529 908.556 447.679 Q 914.121 441 920.939 441 Q 927.758 441 793.157 441 C 784.24 441 771.908 445.277 765.636 450.545 L 765.636 450.545 C 759.365 455.814 753.015 467.221 751.466 476.002 Z " fill="rgb(255,226,163)"/><path d=" M 751.133 474.548 L 746.508 501.398 L 773.517 527.438 L 750.337 550.554 L 771.938 571.5 L 787 555.667 Q 866.964 639.312 871.436 643.078 C 873.235 640.414 875.008 636.847 876.281 632.18 Q 877.554 627.513 879.437 614.003 C 880.668 605.171 876.774 592.664 870.747 586.091 L 764.794 470.534 C 758.768 463.961 752.646 465.76 751.133 474.548 Z " fill="rgb(106,96,75)"/><path d=" M 693.667 622.364 Q 706.64 651 716.394 651 C 725.674 651 799.54 651 852.758 651 Q 834.481 651 822.455 622.364 L 693.667 622.364 Z " fill="rgb(176,151,100)"/><path d=" M 788.971 535.1 L 904.87 651 L 935.777 651 L 804.424 519.647 L 788.971 535.1 Z " fill="rgb(227,227,227)"/><path d=" M 819.877 504.194 L 804.424 519.647 L 935.777 651 L 935.777 620.093 L 819.877 504.194 Z " fill="rgb(164,164,164)"/><path d=" M 758.064 535.1 L 773.517 550.554 L 835.33 488.74 L 819.877 473.287 L 758.064 535.1 Z " fill="rgb(128,118,198)"/><path d=" M 781.244 511.92 L 734.884 465.561 L 750.337 450.107 L 796.697 496.467 L 781.244 511.92 Z " fill="rgb(100,80,61)"/><path d=" M 728.767 466.908 C 722.371 460.511 722.371 450.125 728.767 443.728 C 735.164 437.332 745.55 437.332 751.947 443.728 C 758.344 450.125 758.344 460.511 751.947 466.908 C 745.55 473.305 735.164 473.305 728.767 466.908 Z " fill="rgb(132,196,200)"/></g></svg>