<?xml version="1.0" standalone="no"?><!-- Generator: Gravit.io --><svg xmlns="http://www.w3.org/2000/svg" xmlns:xlink="http://www.w3.org/1999/xlink" style="isolation:isolate" viewBox="781 498 100 100" width="100" height="100"><defs><clipPath id="_clipPath_oawkByOkgZcbsHOCyDAqc5JGaUI78oDV"><rect x="781" y="498" width="100" height="100"/></clipPath></defs><g clip-path="url(#_clipPath_oawkByOkgZcbsHOCyDAqc5JGaUI78oDV)"><circle vector-effect="non-scaling-stroke" cx="830.9999999999999" cy="548" r="50" fill="rgb(81,81,81)"/><path d=" M 824.6 522.4 L 824.6 541.6 L 805.4 541.6 C 801.868 541.6 799 544.468 799 548 L 799 548 C 799 551.532 801.868 554.4 805.4 554.4 L 824.6 554.4 L 824.6 573.6 C 824.6 577.132 827.468 580 831 580 L 831 580 C 834.532 580 837.4 577.132 837.4 573.6 L 837.4 554.4 L 856.6 554.4 C 860.132 554.4 863 551.532 863 548 L 863 548 C 863 544.468 860.132 541.6 856.6 541.6 L 837.4 541.6 L 837.4 522.4 C 837.4 518.868 834.532 516 831 516 L 831 516 C 827.468 516 824.6 518.868 824.6 522.4 Z " fill="rgb(255,255,255)"/></g></svg>